<svg width="34" height="33" viewBox="0 0 34 33" fill="none" xmlns="http://www.w3.org/2000/svg">
<path d="M25.4196 0H8.80654C4.22871 0 0.5 3.70333 0.5 8.25V24.75C0.5 29.2967 4.22871 33 8.80654 33H25.4196C29.9974 33 33.7262 29.2967 33.7262 24.75V8.25C33.7262 3.72167 29.9974 0 25.4196 0ZM20.4357 10.67C20.8233 10.34 21.3586 9.82667 21.4879 9.02C21.5248 8.83667 21.5063 8.67167 21.5063 8.50667C21.5063 8.47 21.5063 8.45167 21.5063 8.415C22.7061 9.13 23.2784 10.0467 23.223 11.2017C23.2045 11.6417 23.0938 12.0817 23.0938 12.1L22.8907 12.9433L23.4814 12.3017C23.6291 12.1367 24.0536 11.495 24.109 11.3117C24.1644 11.11 24.2013 10.9267 24.2013 10.78C24.7735 11.33 25.0689 11.9533 25.1243 12.7233C25.2166 14.0983 24.1829 15.4 22.8354 15.6567C22.7615 15.675 22.6692 15.6933 22.5954 15.7117L22.5031 15.73H21.9493C21.8755 15.7117 21.8017 15.6933 21.7278 15.675C21.5617 15.6383 21.414 15.6017 21.2663 15.565C20.1957 15.18 19.5497 14.4283 19.3651 13.3467C19.2174 12.265 19.5681 11.3667 20.4357 10.67ZM13.8643 7.13167C13.8643 5.555 15.1564 4.27166 16.7439 4.27166C18.3683 4.27166 19.6604 5.57333 19.6604 7.16833C19.6604 8.745 18.3683 10.0283 16.7808 10.0283H13.8643V7.13167ZM20.9156 25.9233C20.6941 23.1 19.642 21.3583 17.8884 20.295C17.7038 22.4217 15.9132 24.09 13.7166 24.09H6.68376C6.68376 21.741 8.58804 19.8367 10.9371 19.8367H17.9622V15.6933H8.56657V15.5833C8.56657 13.2917 10.4494 11.4217 12.7568 11.4217H15.3595H17.9622V15.675C22.3 17.0867 25.4565 21.1383 25.4565 25.9233H20.9156Z" fill="#7752FF"/>
</svg>
